<?xml version="1.0" encoding="UTF-8"?>
<!-- Generated by Pixelmator Pro 3.3.2 -->
<svg width="64" height="64" viewBox="0 0 64 64" xmlns="http://www.w3.org/2000/svg" xmlns:xlink="http://www.w3.org/1999/xlink">
    <linearGradient id="linearGradient1" x1="10.786797" y1="10.786797" x2="53.213203" y2="53.213203" gradientUnits="userSpaceOnUse">
        <stop offset="0" stop-color="#1b592a" stop-opacity="1"/>
        <stop offset="1" stop-color="#0d0d0d" stop-opacity="1"/>
    </linearGradient>
    <path id="Ellipse" fill="url(#linearGradient1)" fill-rule="evenodd" stroke="none" d="M 62 32 C 62 15.431458 48.568542 2 32 2 C 15.431458 2 2 15.431458 2 32 C 2 48.568542 15.431458 62 32 62 C 48.568542 62 62 48.568542 62 32 Z"/>
    <linearGradient id="linearGradient2" x1="10.786797" y1="10.786797" x2="53.213203" y2="53.213203" gradientUnits="userSpaceOnUse">
        <stop offset="0" stop-color="#d8f2a0" stop-opacity="1"/>
        <stop offset="1" stop-color="#012606" stop-opacity="1"/>
    </linearGradient>
    <path id="path1" fill="none" stroke="url(#linearGradient2)" stroke-width="2" d="M 62 32 C 62 15.431458 48.568542 2 32 2 C 15.431458 2 2 15.431458 2 32 C 2 48.568542 15.431458 62 32 62 C 48.568542 62 62 48.568542 62 32 Z"/>
    <text id="TU" xml:space="preserve" x="4" y="38" font-family="Courier New" font-size="22" font-weight="700" fill="#d8f2a0">&lt;TU></text>
</svg>
